<?xml version="1.0" encoding="utf-8"?>
<!-- Generator: Adobe Illustrator 17.0.1, SVG Export Plug-In . SVG Version: 6.00 Build 0)  -->
<!DOCTYPE svg PUBLIC "-//W3C//DTD SVG 1.1//EN" "http://www.w3.org/Graphics/SVG/1.1/DTD/svg11.dtd">
<svg version="1.1" id="Layer_1" xmlns="http://www.w3.org/2000/svg" xmlns:xlink="http://www.w3.org/1999/xlink" x="0px" y="0px"
	 width="6258.875px" height="628.383px" viewBox="0 0 6258.875 628.383" enable-background="new 0 0 6258.875 628.383"
	 xml:space="preserve">
<g>
	<g>
		<defs>
			<rect id="SVGID_1_" x="0" width="6258.875" height="628.383"/>
		</defs>
		<clipPath id="SVGID_2_">
			<use xlink:href="#SVGID_1_"  overflow="visible"/>
		</clipPath>
		<path clip-path="url(#SVGID_2_)" fill-rule="evenodd" clip-rule="evenodd" fill="#102A83" d="M1447.942,442.825
			c17.366-17.365,30.54-37.127,39.523-59.282c8.983-22.156,13.473-45.81,13.473-70.959c0-25.151-4.641-48.953-13.923-71.41
			c-9.281-22.455-22.905-42.366-40.87-59.732c-17.366-16.766-36.976-29.491-58.834-38.174c-21.856-8.683-45.36-13.024-70.511-13.024
			c-51.498,0-94.613,17.964-129.345,53.894c-36.945,36.945-68.926,107.584-53.803,159.355l-90.385,114.121
			c-31.338-50.079-37.253-84.787-37.253-144.131c0-43.115,7.934-83.685,23.803-121.71s37.876-71.11,66.02-99.254
			c28.145-28.144,61.229-50.601,99.254-67.367C1233.116,8.384,1273.686,0,1316.801,0c43.115,0,83.535,8.084,121.261,24.253
			c37.726,16.167,70.81,38.174,99.254,66.019c28.445,27.845,50.9,60.63,67.368,98.356c16.467,37.725,24.701,78.147,24.701,121.261
			c0,43.714-7.934,84.433-23.803,122.159c-15.869,37.726-37.876,70.81-66.02,99.254c-28.144,28.445-60.93,50.9-98.356,67.368
			c-37.426,16.467-77.697,25-120.811,25.599c-49.704,0-76.406-2.889-120.624-24.885l83.403-107.055
			c35.817,11.631,73.05,3.898,107.282-9.98C1412.612,473.366,1431.774,460.191,1447.942,442.825L1447.942,442.825z M967.391,0
			v128.447H803.015v495.821H674.568V128.447H503.905V0H967.391z M310.786,130.243c-51.498,0-94.613,17.964-129.345,53.894
			c-35.329,35.33-52.995,78.445-52.995,129.345c0,25.149,4.79,48.803,14.371,70.959c9.581,22.157,23.055,41.918,40.421,59.284
			c17.365,17.365,36.976,30.539,58.833,39.522c21.858,8.982,45.062,13.473,69.613,13.473h151.801v127.549H311.684
			c-41.318,0-81.139-8.084-119.463-24.252c-38.325-16.167-71.709-38.324-100.153-66.469c-28.444-28.144-50.899-61.079-67.367-98.804
			C8.233,397.017,0,356.596,0,313.482c0-43.115,7.934-83.535,23.803-121.261c15.869-37.725,37.876-70.81,66.02-99.255
			c28.145-28.444,61.23-51.049,99.254-67.816C227.102,8.384,267.672,0,310.786,0h152.7v130.243H310.786z M310.786,130.243"/>
		<path clip-path="url(#SVGID_2_)" fill-rule="evenodd" clip-rule="evenodd" fill="#E52015" d="M1179.463,591.578l94.927-121.452
			c52.64,20.69,115.221,12.223,177.174-53.785c31.261-37.014,46.419-112.3,22.943-149.894c-6.728,6.316-14.475,13.726-20.934,20.925
			c-18.65,20.787-43.842,44.495-63.452,64.734c-7.887,8.142-10.156,12.895-23.506,19.24c-35.199,16.73-71.741,5.41-94.649-18.362
			c-22.077-22.91-32.562-64.122-15.845-96.312c11.08-21.335,42.833-51.459,59.794-68.409c6.919-6.917,30.997-26.402,33.15-33.375
			c-122.121-42.154-215.488,92.803-201.316,173.594c1.779,20.073,4.785,22.985-4.7,35.579l-89.875,113.373
			C1040.973,492.828,1142.778,573.321,1179.463,591.578L1179.463,591.578z M1179.463,591.578"/>
		<path clip-path="url(#SVGID_2_)" fill-rule="evenodd" clip-rule="evenodd" fill="#E30016" d="M6233.709,432.74
			c-7.582,20.676-25.157,36.872-52.725,48.589c-27.567,11.717-63.407,18.264-107.517,19.643l103.382,127.16h-190.223
			l-153.004-196.426h243.981l21.709-59.962h-318.416l-65.131,178.851c-11.027,30.325-31.704,51.001-62.028,62.028
			c-15.852,5.514-32.911,9.133-51.174,10.856c-18.264,1.723-36.7,2.584-55.31,2.584h-15.507l116.821-322.551h488.997
			c43.42,0,75.985,5.858,97.696,17.574c21.709,11.717,28.43,28.602,20.16,50.657L6233.709,432.74z M5067.562,371.743l-21.711,59.962
			h474.523c-8.271,23.434-30.325,40.664-66.165,51.692c-35.838,11.028-80.292,16.541-133.363,16.541H5021.04l-22.745,60.995h474.523
			c-4.135,11.717-11.373,21.71-21.711,29.981c-10.338,8.27-22.916,15.162-37.733,20.676c-14.818,5.514-31.359,9.477-49.624,11.889
			s-37.391,3.619-57.377,3.619h-348.397c-19.298,0-36.873-1.551-52.725-4.652c-15.852-3.101-28.947-7.582-39.285-13.44
			c-10.338-5.859-17.747-12.924-22.227-21.194c-4.479-8.271-4.997-17.575-1.551-27.913l68.233-189.189
			c3.445-9.649,10.51-18.608,21.193-26.879c10.682-8.27,23.433-15.335,38.251-21.194c14.818-5.858,31.359-10.51,49.624-13.956
			c18.264-3.447,36.7-5.169,55.309-5.169h349.431c42.731,0,74.952,5.858,96.663,17.574c21.709,11.717,28.774,28.602,21.192,50.657
			H5067.562z M4369.733,371.743l-69.265,189.19h318.416l21.71-60.995h-112.686c-18.609,0-35.84-1.379-51.692-4.136
			c-15.852-2.756-29.119-6.719-39.801-11.889c-10.684-5.168-18.782-11.2-24.295-18.092c-5.514-6.891-7.581-14.128-6.203-21.71
			l4.135-12.406h411.46l-46.522,128.194c-4.135,11.716-11.372,21.71-21.709,29.981c-10.338,8.27-23.088,15.162-38.252,20.676
			c-15.162,5.514-31.876,9.649-50.14,12.405c-18.265,2.758-37.045,4.136-56.343,4.136h-349.432c-18.608,0-35.839-1.551-51.69-4.652
			c-15.852-3.101-29.12-7.582-39.803-13.44c-10.682-5.859-18.264-12.924-22.743-21.194c-4.48-8.271-4.998-17.575-1.551-27.913
			l69.265-190.223c3.447-9.649,10.51-18.437,21.193-26.363s23.434-14.817,38.252-20.676c14.817-5.858,31.358-10.51,49.623-13.956
			c18.264-3.447,37.045-5.169,56.344-5.169h348.397c43.42,0,75.985,5.514,97.695,16.541c21.71,11.027,28.43,28.258,20.16,51.69
			H4369.733z M4055.452,626.063h-32.048c-8.271,0-18.264-0.344-29.981-1.034c-11.717-0.689-23.951-2.24-36.701-4.652
			c-12.75-2.412-25.329-5.858-37.734-10.338c-12.406-4.48-23.089-10.51-32.049-18.092l-127.16-108.551l-48.59-40.319
			l-67.198,182.985h-157.14l117.856-322.551h32.048c8.271,0,18.437,0.344,30.498,1.033c12.061,0.689,24.467,2.24,37.217,4.652
			c12.75,2.412,25.329,5.859,37.735,10.338c12.405,4.48,23.088,10.511,32.048,18.092l128.194,108.552
			c5.513,4.135,11.027,8.615,16.541,13.44c4.824,4.135,9.821,8.615,14.99,13.439c5.168,4.824,10.51,8.959,16.024,12.405
			l42.386-116.821c8.271-22.743,27.569-39.285,57.895-49.623c30.325-10.338,67.198-15.508,110.619-15.508h12.406L4055.452,626.063z
			 M3423.789,627.098h-17.576c-18.608,0-35.839-1.551-51.69-4.652c-15.852-3.101-28.947-7.582-39.285-13.44
			c-10.338-5.859-17.747-12.924-22.227-21.194c-4.48-8.271-4.996-17.575-1.551-27.913l93.044-256.387h14.473
			c43.42,0,75.986,5.858,97.696,17.574c21.71,11.717,28.43,28.602,20.159,50.657L3423.789,627.098z M3057.816,396.556
			l-58.927,163.344c-8.96,24.122-23.261,41.353-42.904,51.691c-19.643,10.338-51.174,15.508-94.594,15.508h-45.489l85.807-236.745
			l7.237-18.609h-241.915l3.101-9.304c8.271-22.744,23.434-38.252,45.489-46.522c22.055-8.271,50.657-12.406,85.807-12.406h528.281
			l-5.168,14.473c-4.824,13.785-13.268,24.295-25.329,31.532c-12.061,7.236-25.328,12.406-39.803,15.508
			c-14.473,3.102-29.118,4.997-43.937,5.686c-14.818,0.689-27.397,1.033-37.735,1.033h-110.619L3057.816,396.556z M2386.868,499.938
			h-335.992c-18.608,0-36.011-1.379-52.208-4.136c-16.196-2.756-29.808-7.063-40.835-12.922
			c-11.027-5.858-18.953-12.922-23.778-21.194c-4.825-8.27-5.17-18.264-1.035-29.981l19.643-53.758
			c4.824-13.094,12.75-24.295,23.777-33.599c11.028-9.304,24.295-17.059,39.803-23.262c15.507-6.203,32.393-10.682,50.657-13.439
			c18.264-2.756,37.045-4.135,56.343-4.135h342.194c44.11,0,78.054,5.514,101.831,16.541c23.778,11.027,31.188,28.258,22.227,51.69
			h-474.522l-21.711,59.962h324.619c18.609,0,36.528,1.035,53.759,3.102c13.095,2.068,24.467,4.824,34.116,8.271l-121.99,65.13
			L2386.868,499.938z M2505.757,443.078c3.447,1.377,6.893,2.412,10.338,3.101c11.717,5.514,20.332,12.405,25.846,20.676
			c5.514,8.27,6.203,17.919,2.068,28.946l-22.744,64.098c-8.959,23.433-29.119,40.663-60.479,51.691
			c-31.358,11.027-69.782,16.541-115.271,16.541h-334.957c-18.608,0-36.356-1.379-53.241-4.135
			c-16.885-2.758-31.359-7.065-43.42-12.924c-12.061-5.858-20.848-12.922-26.362-21.192c-5.514-8.271-6.203-17.92-2.068-28.947
			h478.658l19.642-52.725L2505.757,443.078z M2505.757,443.078"/>
	</g>
</g>
</svg>
